<svg xmlns="http://www.w3.org/2000/svg" width="1440" height="320" viewBox="0 0 1440 320" preserveAspectRatio="none">
  <path fill="#c3cfe2" fill-opacity="0.2" d="M0,160L48,144C96,128,192,96,288,106.7C384,117,480,171,576,186.7C672,203,768,181,864,154.7C960,128,1056,96,1152,96C1248,96,1344,128,1392,144L1440,160L1440,320L1392,320C1344,320,1248,320,1152,320C1056,320,960,320,864,320C768,320,672,320,576,320C480,320,384,320,288,320C192,320,96,320,48,320L0,320Z"></path>
  <path fill="#a1b5d6" fill-opacity="0.2" d="M0,192L48,197.3C96,203,192,213,288,229.3C384,245,480,267,576,250.7C672,235,768,181,864,170.7C960,160,1056,192,1152,197.3C1248,203,1344,181,1392,170.7L1440,160L1440,320L1392,320C1344,320,1248,320,1152,320C1056,320,960,320,864,320C768,320,672,320,576,320C480,320,384,320,288,320C192,320,96,320,48,320L0,320Z"></path>
</svg>